<?xml version="1.0" standalone="no"?>
<!DOCTYPE svg PUBLIC "-//W3C//DTD SVG 20010904//EN"
 "http://www.w3.org/TR/2001/REC-SVG-20010904/DTD/svg10.dtd">
<svg version="1.0" xmlns="http://www.w3.org/2000/svg"
 width="300.000000pt" height="300.000000pt" viewBox="0 0 300.000000 300.000000"
 preserveAspectRatio="xMidYMid meet">
<metadata>
Created by potrace 1.10, written by Peter Selinger 2001-2011
</metadata>
<g transform="translate(0.000000,300.000000) scale(0.100000,-0.100000)"
fill="#000000" stroke="none">
<path d="M1095 2016 c-85 -38 -125 -113 -124 -236 0 -126 11 -170 51 -203 42
-35 106 -66 152 -74 32 -5 36 -3 36 15 0 17 8 22 44 27 25 4 49 4 55 0 16 -9
51 4 51 20 0 8 -6 18 -14 22 -9 5 -12 18 -9 36 7 36 20 34 37 -5 41 -97 143
-125 293 -78 53 16 109 7 116 -20 3 -11 12 -20 21 -20 35 0 126 43 163 78 36
33 42 44 49 97 17 139 -1 239 -54 298 -47 53 -131 70 -199 42 -72 -30 -112
-91 -120 -184 l-5 -56 -144 0 -144 -1 0 47 c0 143 -136 248 -255 195z m128
-32 c17 -6 17 -7 0 -19 -12 -9 -24 -10 -35 -4 -63 34 -137 -13 -158 -99 -13
-55 -10 -60 58 -146 13 -16 21 -30 19 -32 -2 -2 -18 1 -37 6 l-33 9 23 -24
c30 -32 75 -48 90 -31 8 10 1 27 -26 67 -20 30 -45 63 -55 75 -35 38 -13 121
40 148 39 21 47 20 71 -4 l20 -20 22 20 c27 25 39 25 71 0 29 -23 47 -74 47
-132 0 -32 -3 -38 -22 -38 -23 0 -68 36 -68 55 0 7 -15 11 -35 11 l-36 -1 6
-40 c9 -58 43 -85 107 -85 l50 0 -6 -37 c-4 -21 -16 -50 -27 -65 -11 -16 -15
-28 -10 -28 5 0 13 5 16 10 7 11 25 4 25 -10 0 -5 -19 -9 -42 -9 -24 1 -67 -3
-96 -9 -72 -13 -111 7 -132 66 -9 23 -27 52 -40 65 -13 12 -19 15 -12 6 6 -9
14 -33 16 -55 5 -36 4 -37 -9 -20 -8 11 -15 27 -16 35 -3 49 -7 69 -14 81 -6
10 -4 12 10 6 16 -6 16 -4 4 10 -20 24 -13 110 14 164 37 75 119 106 200 74z
m657 4 c80 -24 115 -90 112 -213 -2 -76 -3 -85 -14 -79 -4 3 -8 1 -8 -5 0 -5
5 -11 11 -13 8 -3 6 -15 -4 -41 -21 -48 -26 -47 -20 5 8 52 -11 44 -29 -13 -6
-22 -23 -50 -37 -61 -23 -18 -34 -19 -91 -13 -97 10 -130 8 -180 -10 -57 -21
-140 -16 -178 11 -25 19 -79 110 -71 119 3 2 26 -1 52 -7 52 -11 241 -7 270 6
14 7 17 3 17 -18 0 -15 -7 -40 -15 -56 -9 -17 -11 -30 -6 -30 12 0 31 49 39
103 6 37 13 50 42 69 23 15 36 34 41 56 6 31 5 32 -26 32 -19 0 -35 -5 -37
-11 -2 -6 -25 -19 -51 -29 l-47 -18 0 21 c2 58 20 113 45 134 32 28 49 29 75
3 20 -20 20 -20 40 0 24 24 48 25 79 4 25 -18 51 -71 51 -103 0 -12 -22 -51
-50 -89 -57 -78 -63 -102 -24 -102 17 0 41 15 72 47 26 25 36 37 22 26 -34
-28 -70 -39 -70 -20 0 7 10 23 23 35 12 11 31 37 41 57 18 32 18 42 8 83 -8
30 -23 56 -43 74 -40 34 -58 38 -101 23 -28 -9 -39 -9 -53 1 -17 13 -17 14 6
22 33 13 68 13 109 0z m-83 -195 c2 -6 -22 -31 -54 -54 -32 -23 -61 -47 -65
-53 -4 -6 -9 -4 -14 7 -3 9 -14 17 -24 17 -11 0 -22 5 -25 10 -10 16 31 11 45
-5 11 -14 14 -13 24 7 6 13 26 28 44 34 33 10 75 44 55 44 -6 0 -16 -7 -23
-15 -7 -8 -20 -15 -30 -15 -9 0 -29 -10 -44 -21 -15 -12 -30 -18 -34 -14 -9 9
36 45 57 45 9 1 27 7 41 15 27 16 42 15 47 -2z m-427 -38 c64 6 78 4 83 -8 6
-17 -19 -32 -28 -17 -3 5 -40 8 -81 7 -69 -2 -77 0 -95 22 -30 36 -22 46 13
16 30 -26 35 -26 108 -20z m-145 15 c11 -35 61 -53 128 -46 56 7 58 6 52 -13
-6 -19 -5 -19 24 -5 26 13 34 13 58 1 17 -9 36 -11 48 -6 21 8 85 12 85 5 0
-2 3 -11 6 -20 8 -21 -15 -21 -30 -1 -8 11 -20 14 -43 9 -18 -4 -31 -10 -28
-14 3 -4 -16 -8 -40 -8 -26 -1 -45 3 -45 9 0 7 10 9 26 5 17 -5 23 -3 19 4 -8
13 -48 13 -62 -1 -8 -8 -17 -7 -34 2 -13 7 -53 16 -89 20 -65 7 -100 30 -100
65 0 21 18 17 25 -6z m415 -18 c0 -15 -65 -32 -105 -27 -32 4 -35 3 -15 -4 18
-7 20 -9 7 -10 -24 -1 -53 15 -61 34 -4 13 8 15 84 15 50 0 90 -4 90 -8z m10
-67 c0 -8 -2 -15 -4 -15 -2 0 -6 7 -10 15 -3 8 -1 15 4 15 6 0 10 -7 10 -15z
m-60 -5 c0 -5 -12 -10 -27 -10 -22 0 -25 2 -13 10 20 13 40 13 40 0z m275
-150 c-11 -5 -33 -8 -50 -8 -29 1 -29 1 5 8 49 10 69 10 45 0z m-677 -7 c-10
-2 -26 -2 -35 0 -10 3 -2 5 17 5 19 0 27 -2 18 -5z"/>
<path d="M1107 1864 c-12 -13 -7 -20 13 -20 11 0 19 5 17 10 -4 13 -21 18 -30
10z"/>
<path d="M1267 1864 c-14 -14 -7 -22 18 -20 14 0 23 6 22 11 -4 12 -31 18 -40
9z"/>
<path d="M1083 1815 c5 -16 37 -18 37 -3 0 8 -9 14 -20 14 -11 0 -19 -5 -17
-11z"/>
<path d="M1280 1820 c0 -5 9 -10 20 -10 11 0 20 5 20 10 0 6 -9 10 -20 10 -11
0 -20 -4 -20 -10z"/>
<path d="M1685 1860 c-4 -6 -4 -14 0 -18 4 -4 10 -1 12 6 4 10 8 10 21 0 13
-11 14 -11 10 2 -6 19 -34 25 -43 10z"/>
<path d="M1857 1863 c-13 -13 -7 -25 7 -14 11 9 15 9 19 -1 2 -7 8 -10 12 -6
4 4 4 11 0 17 -7 12 -28 14 -38 4z"/>
<path d="M1670 1820 c0 -5 9 -10 20 -10 11 0 20 5 20 10 0 6 -9 10 -20 10 -11
0 -20 -4 -20 -10z"/>
<path d="M1873 1818 c2 -7 10 -13 17 -13 7 0 15 6 18 13 2 7 -5 12 -18 12 -13
0 -20 -5 -17 -12z"/>
<path d="M1487 1743 c-3 -5 19 -8 49 -9 30 0 48 3 41 8 -15 10 -84 10 -90 1z"/>
<path d="M648 1358 c7 -7 12 -28 12 -48 0 -20 -5 -41 -12 -48 -9 -9 -7 -12 9
-12 16 0 19 5 15 25 -2 14 0 25 5 25 5 0 15 -11 21 -25 6 -14 19 -25 29 -25
14 0 13 4 -7 25 -18 20 -21 28 -12 37 30 30 8 58 -46 58 -20 0 -23 -3 -14 -12z
m58 -25 c-3 -8 -6 -17 -6 -19 0 -2 -7 -4 -15 -4 -15 0 -21 31 -9 43 11 11 35
-5 30 -20z"/>
<path d="M788 1319 c3 -37 1 -54 -9 -60 -9 -6 2 -9 34 -9 42 0 47 2 47 22 0
21 -1 21 -14 3 -8 -11 -19 -16 -30 -12 -22 9 -16 43 6 39 9 -1 19 2 23 8 3 5
-3 10 -14 10 -14 0 -21 6 -21 20 0 17 3 19 19 10 26 -13 31 -13 31 5 0 11 -11
15 -39 15 l-38 0 5 -51z"/>
<path d="M922 1358 c-19 -19 -15 -34 16 -56 22 -17 25 -23 14 -34 -11 -11 -16
-10 -26 5 -7 9 -16 17 -19 17 -3 0 -4 -8 -3 -17 4 -24 55 -24 70 0 11 19 9 21
-41 54 -16 10 -16 13 -3 22 21 15 30 13 30 -4 0 -8 5 -15 11 -15 6 0 9 8 7 18
-4 21 -39 27 -56 10z"/>
<path d="M1038 1319 c3 -37 1 -54 -9 -60 -9 -6 2 -9 34 -9 42 0 47 2 47 22 0
21 -1 21 -14 3 -8 -11 -19 -16 -30 -12 -22 9 -16 43 6 39 9 -1 19 2 23 8 4 6
-4 10 -18 10 -20 0 -24 4 -20 20 4 15 9 17 23 10 25 -13 30 -13 30 5 0 11 -11
15 -39 15 l-38 0 5 -51z"/>
<path d="M1168 1325 c3 -28 0 -50 -8 -60 -11 -13 -8 -15 16 -15 22 0 25 3 16
12 -7 7 -12 18 -12 25 0 22 20 14 32 -12 6 -14 18 -25 25 -25 11 0 9 7 -6 27
-19 23 -20 28 -7 42 21 23 2 51 -33 51 -28 0 -28 -1 -23 -45z m50 6 c-5 -24
-38 -27 -38 -3 0 10 3 21 6 25 11 11 35 -5 32 -22z"/>
<path d="M1280 1361 c0 -6 4 -12 9 -15 5 -3 14 -26 20 -51 10 -41 31 -62 31
-32 0 6 11 33 24 60 l23 47 -26 0 c-17 0 -22 -3 -13 -8 10 -7 10 -16 -1 -47
-14 -41 -20 -39 -31 9 -5 20 -3 32 6 37 9 6 4 9 -14 9 -16 0 -28 -4 -28 -9z"/>
<path d="M1428 1358 c7 -7 12 -28 12 -48 0 -20 -5 -41 -12 -48 -9 -9 -3 -12
29 -12 29 0 43 5 47 16 9 23 1 28 -14 9 -20 -23 -40 -18 -40 11 0 21 4 24 20
19 11 -4 20 -2 20 4 0 6 -9 11 -20 11 -11 0 -20 6 -20 14 0 23 17 28 34 10 15
-14 16 -14 16 5 0 18 -6 21 -42 21 -33 0 -39 -3 -30 -12z"/>
<path d="M1618 1358 c6 -8 7 -32 3 -60 -7 -41 -5 -48 8 -48 13 0 16 9 13 43
l-3 42 20 -25 c11 -14 23 -33 27 -42 10 -33 24 -18 24 26 0 24 3 51 6 60 4 10
1 16 -9 16 -12 0 -14 -9 -10 -40 3 -22 3 -40 -1 -40 -3 0 -18 18 -32 40 -15
22 -33 40 -42 40 -10 0 -12 -4 -4 -12z"/>
<path d="M1760 1343 c0 -22 2 -25 10 -13 13 20 13 40 0 40 -5 0 -10 -12 -10
-27z"/>
<path d="M1826 1360 c6 -6 8 -31 4 -60 l-6 -50 31 0 c39 0 62 17 70 52 9 37
-23 68 -72 68 -25 0 -34 -3 -27 -10z m62 -16 c26 -18 28 -46 6 -68 -30 -31
-44 -20 -44 34 0 54 4 58 38 34z"/>
<path d="M1975 1310 c0 -58 1 -60 25 -59 14 0 19 3 13 6 -17 6 -17 85 -1 101
9 9 7 12 -12 12 -24 0 -25 -3 -25 -60z"/>
<path d="M2066 1360 c6 -6 8 -31 4 -60 -6 -45 -4 -50 12 -50 12 0 16 4 12 11
-6 11 -14 79 -8 79 1 0 15 -20 31 -45 15 -25 31 -45 35 -45 3 0 8 27 10 60 3
54 1 60 -16 60 -16 0 -17 -3 -8 -12 7 -7 12 -28 12 -47 l0 -36 -31 48 c-17 26
-38 47 -47 47 -11 0 -13 -3 -6 -10z"/>
<path d="M2218 1358 c7 -7 12 -28 12 -48 0 -20 -5 -41 -12 -48 -9 -9 -3 -12
29 -12 29 0 43 5 47 16 9 23 1 28 -14 9 -20 -23 -40 -18 -40 11 0 21 4 24 20
19 11 -4 20 -2 20 4 0 6 -9 11 -20 11 -11 0 -20 6 -20 14 0 23 17 28 34 10 15
-14 16 -14 16 5 0 18 -6 21 -42 21 -33 0 -39 -3 -30 -12z"/>
<path d="M1850 1185 c0 -11 -11 -15 -36 -15 -23 0 -33 -4 -28 -11 3 -6 17 -8
31 -4 23 5 25 3 20 -17 -16 -67 -29 -148 -25 -159 2 -7 12 27 22 76 9 49 19
92 22 97 4 5 28 8 55 7 27 -2 52 0 55 4 4 4 -19 7 -50 7 -48 0 -57 3 -52 15 3
8 1 15 -4 15 -6 0 -10 -7 -10 -15z"/>
<path d="M1089 1111 c-6 -16 -17 -32 -25 -35 -17 -7 -19 15 -2 32 6 6 8 15 4
19 -4 4 -11 1 -16 -7 -21 -37 -38 -53 -48 -46 -17 11 -15 36 4 36 8 0 12 5 8
11 -4 7 -11 6 -22 -5 -12 -12 -13 -20 -5 -39 7 -14 8 -29 2 -38 -5 -8 -9 -20
-9 -28 0 -11 3 -11 15 -1 8 7 15 20 15 30 0 10 7 23 15 30 10 9 15 9 15 1 0
-18 25 -13 45 9 25 28 32 25 27 -10 -4 -30 10 -41 24 -19 5 8 9 8 14 -1 5 -8
13 -5 26 12 21 26 54 33 54 12 0 -18 38 -13 51 7 7 12 10 12 18 0 7 -10 13
-11 30 -2 28 16 27 7 -8 -37 -35 -45 -43 -75 -26 -98 11 -16 15 -14 34 24 11
23 21 52 21 66 0 14 10 33 25 44 14 11 25 23 25 27 0 5 -9 0 -20 -10 -19 -17
-20 -17 -20 -1 0 10 -5 15 -12 11 -7 -4 -4 1 6 9 17 14 17 16 3 16 -9 0 -23
-12 -30 -27 l-14 -27 -12 22 c-15 27 -28 28 -36 2 -9 -29 -28 -25 -21 5 4 14
2 25 -4 25 -5 0 -9 -6 -7 -12 1 -8 -8 -13 -21 -13 -15 0 -30 -10 -39 -25 -14
-25 -14 -25 -9 10 6 37 5 36 -32 -17 -11 -16 -12 -15 -7 10 3 17 1 27 -6 27
-6 0 -9 7 -5 15 3 8 1 15 -5 15 -5 0 -15 -13 -20 -29z m240 -112 c-16 -46 -29
-59 -29 -28 0 24 28 75 36 66 2 -2 -1 -19 -7 -38z"/>
<path d="M1854 1105 c-4 -14 -3 -29 0 -32 12 -12 46 -13 46 -2 0 6 7 9 15 5
19 -7 19 4 1 29 -13 18 -14 18 -24 -2 -6 -11 -8 -23 -4 -27 3 -4 -2 -4 -12 0
-13 5 -16 13 -12 30 4 13 4 24 1 24 -2 0 -7 -11 -11 -25z"/>
<path d="M1975 1110 c-7 -21 -25 -28 -25 -10 0 6 -4 10 -10 10 -18 0 -10 -22
10 -27 11 -3 20 -9 20 -14 0 -5 6 -9 13 -9 17 0 53 38 44 46 -3 3 -10 -4 -17
-15 -12 -23 -30 -28 -30 -9 0 6 7 20 17 30 14 16 14 18 0 18 -9 0 -19 -9 -22
-20z"/>
<path d="M1447 1113 c-13 -12 -7 -33 8 -33 21 0 19 -7 -10 -41 -13 -16 -27
-46 -31 -65 -7 -39 6 -63 23 -42 14 18 33 77 33 103 0 12 9 30 20 40 13 12 20
14 20 5 0 -8 8 -10 21 -7 12 3 33 1 47 -4 21 -8 29 -7 39 7 21 29 15 38 -8 13
-15 -17 -19 -19 -15 -6 3 9 1 17 -4 17 -6 0 -10 -6 -11 -12 0 -7 -4 -4 -9 7
-5 11 -9 14 -9 8 -1 -19 -21 -16 -21 3 0 13 -5 12 -30 -6 -26 -19 -30 -19 -30
-4 0 14 -3 14 -15 4 -13 -11 -14 -10 -9 4 6 17 2 21 -9 9z m3 -120 c-13 -40
-30 -66 -30 -45 0 18 32 93 37 88 3 -3 0 -22 -7 -43z"/>
<path d="M1725 1109 c-11 -17 -14 -49 -4 -49 3 0 10 10 13 23 6 20 7 21 17 4
8 -14 14 -16 25 -6 8 6 14 17 14 23 0 6 -5 3 -11 -7 -10 -16 -11 -16 -28 4
-14 18 -19 20 -26 8z"/>
<path d="M1670 1090 c0 -22 1 -23 24 -14 18 7 10 34 -10 34 -8 0 -14 -9 -14
-20z"/>
</g>
</svg>
